<svg width="441" height="281" viewBox="0 0 441 281" fill="none" xmlns="http://www.w3.org/2000/svg">
<path d="M432.6 280.525H8.59961C4.19961 280.525 0.599609 276.925 0.599609 272.525V8.52466C0.599609 4.12466 4.19961 0.524658 8.59961 0.524658H432.6C437 0.524658 440.6 4.12466 440.6 8.52466V272.525C440.6 276.925 437 280.525 432.6 280.525Z" fill="#E6E6E6"/>
<path d="M86.1304 109.369C80.0104 111.97 73.2019 119.238 71.0599 128.418C68.3824 139.969 79.6279 144.865 80.5459 143.258C81.6169 141.346 78.5569 140.734 77.8684 134.767C77.0269 127.041 80.6224 118.32 85.2124 114.571C86.0539 113.883 86.0539 114.877 86.0539 116.637C86.0539 119.926 85.9009 149.073 85.9009 155.193C85.9009 163.454 85.5949 166.056 84.9829 168.58C84.3709 171.181 83.3764 172.941 84.1414 173.629C84.9829 174.394 88.5784 172.558 90.6439 169.651C93.1684 166.132 94.0099 162.001 94.1629 157.411C94.3159 151.903 94.3159 143.182 94.3159 138.286C94.3159 133.696 94.3924 120.385 94.2394 112.353C94.1629 110.364 88.7314 108.298 86.1304 109.369ZM304.691 148.002C304.461 152.286 303.543 155.651 302.396 158.023C300.101 162.613 295.358 163.99 293.369 157.411C292.298 153.815 292.221 147.849 292.986 142.8C293.751 137.674 296.046 133.849 299.718 134.232C303.39 134.614 305.073 139.281 304.691 148.002ZM243.108 174.623C243.032 181.738 241.961 188.011 239.513 189.771C236.07 192.371 231.557 190.382 232.475 185.18C233.316 180.59 237.294 175.848 243.108 170.11C243.108 170.187 243.108 171.487 243.108 174.623ZM242.114 147.925C241.884 151.826 240.89 155.728 239.819 157.947C237.524 162.537 232.781 163.99 230.792 157.335C229.415 152.821 229.797 147.007 230.409 143.335C231.251 138.592 233.393 134.155 237.141 134.155C240.89 134.232 242.649 138.286 242.114 147.925ZM206.465 147.925C206.235 152.056 205.47 155.498 204.17 158.023C201.798 162.536 197.208 163.99 195.143 157.411C193.689 152.668 194.148 146.242 194.76 142.723C195.678 137.521 197.973 133.849 201.492 134.232C205.164 134.614 206.924 139.281 206.465 147.925ZM370.022 152.745C369.104 152.745 368.721 153.662 368.415 155.193C367.268 160.548 366.044 161.772 364.437 161.772C362.678 161.772 361.071 159.094 360.689 153.739C360.383 149.532 360.383 141.805 360.842 134.155C360.918 132.549 360.459 131.019 356.252 129.489C354.416 128.8 351.815 127.882 350.438 131.019C346.689 140.046 345.236 147.16 344.93 150.067C344.93 150.22 344.7 150.22 344.7 149.914C344.471 147.619 344.012 143.335 343.935 134.461C343.935 132.702 343.553 131.248 341.64 130.024C340.416 129.259 336.668 127.882 335.291 129.489C334.143 130.866 332.766 134.461 331.313 138.745C330.165 142.264 329.4 144.635 329.4 144.635C329.4 144.635 329.4 135.226 329.4 131.631C329.4 130.254 328.482 129.795 328.176 129.718C326.952 129.336 324.428 128.724 323.433 128.724C322.133 128.724 321.827 129.412 321.827 130.483C321.827 130.636 321.597 142.876 321.597 151.444C321.597 151.827 321.597 152.209 321.597 152.668C320.909 156.646 318.537 162.001 316.013 162.001C313.488 162.001 312.264 159.783 312.264 149.532C312.264 143.565 312.417 140.964 312.494 136.68C312.57 134.232 312.647 132.319 312.647 131.86C312.647 130.56 310.352 129.871 309.281 129.642C308.21 129.412 307.292 129.259 306.527 129.336C305.532 129.412 304.767 130.101 304.767 131.019C304.767 131.554 304.767 132.472 304.767 132.472C303.467 130.407 301.325 128.953 299.871 128.494C296.046 127.347 292.068 128.341 289.008 132.549C286.637 135.915 285.183 139.663 284.571 145.171C284.189 149.149 284.265 153.203 285.03 156.646C284.112 160.471 282.506 162.078 280.67 162.078C278.069 162.078 276.156 157.793 276.386 150.373C276.539 145.477 277.533 142.035 278.604 137.062C279.063 134.92 278.681 133.849 277.763 132.778C276.921 131.784 275.085 131.325 272.484 131.937C270.648 132.396 267.971 132.855 265.523 133.237C265.523 133.237 265.676 132.625 265.752 131.631C266.364 126.199 260.474 126.658 258.638 128.418C257.49 129.412 256.725 130.636 256.496 132.855C256.037 136.297 258.867 137.98 258.867 137.98C257.949 142.264 255.654 147.772 253.283 151.827C252.059 153.969 251.064 155.575 249.84 157.258C249.84 156.646 249.84 155.957 249.84 155.345C249.84 146.395 249.917 139.357 249.993 136.833C250.07 134.385 250.146 132.472 250.146 132.09C250.146 131.095 249.534 130.789 248.387 130.254C247.316 129.871 246.092 129.565 244.791 129.489C243.185 129.336 242.19 130.254 242.19 131.248C242.19 131.478 242.19 132.625 242.19 132.625C240.89 130.56 238.748 129.106 237.294 128.647C233.469 127.5 229.491 128.494 226.431 132.702C224.06 136.068 222.453 140.734 221.994 145.248C221.612 149.455 221.688 153.051 222.224 156.034C221.612 159.018 219.852 162.154 217.863 162.154C215.339 162.154 213.885 159.936 213.885 149.685C213.885 143.718 214.038 141.117 214.115 136.833C214.191 134.385 214.268 132.472 214.268 132.013C214.268 130.713 211.973 130.024 210.902 129.795C209.754 129.565 208.836 129.412 208.071 129.489C207.077 129.565 206.388 130.407 206.388 131.095V132.625C205.088 130.56 202.946 129.106 201.492 128.647C197.667 127.5 193.689 128.571 190.629 132.702C188.64 135.456 187.034 138.515 186.192 145.171C185.963 147.083 185.886 148.919 185.886 150.603C185.121 155.422 181.602 161.007 178.772 161.007C177.089 161.007 175.482 157.794 175.482 150.832C175.482 141.652 176.018 128.571 176.171 127.27C176.171 127.27 179.766 127.194 180.455 127.194C182.214 127.194 183.897 127.194 186.269 127.117C187.493 127.041 188.64 122.757 187.416 122.221C186.881 121.992 182.903 121.762 181.296 121.762C179.996 121.762 176.324 121.456 176.324 121.456C176.324 121.456 176.63 112.735 176.706 111.817C176.783 111.052 175.788 110.67 175.253 110.44C173.876 109.828 172.652 109.599 171.198 109.293C169.209 108.91 168.291 109.293 168.062 110.976C167.756 113.577 167.679 121.15 167.679 121.15C166.226 121.15 161.1 120.844 159.647 120.844C158.27 120.844 156.816 126.811 158.652 126.811C160.871 126.888 164.696 126.964 167.22 127.041C167.22 127.041 167.144 140.352 167.144 144.483C167.144 144.942 167.144 145.324 167.144 145.783C165.767 153.05 160.871 156.952 160.871 156.952C161.942 152.133 159.8 148.537 155.898 145.477C154.445 144.33 151.614 142.188 148.478 139.893C148.478 139.893 150.314 138.057 151.92 134.461C153.068 131.86 153.144 128.953 150.314 128.341C145.647 127.27 141.822 130.713 140.675 134.385C139.757 137.215 140.292 139.281 141.975 141.499C142.128 141.652 142.205 141.805 142.358 141.958C141.287 144.023 139.833 146.701 138.609 148.843C135.243 154.733 132.642 159.4 130.73 159.4C129.2 159.4 129.2 154.657 129.2 150.297C129.2 146.472 129.506 140.734 129.735 134.844C129.812 132.855 128.817 131.784 127.211 130.789C126.216 130.177 124.074 128.953 122.85 128.953C121.014 128.953 115.659 129.183 110.61 143.794C109.998 145.63 108.698 148.996 108.698 148.996L108.774 131.478C108.774 131.095 108.545 130.636 108.086 130.407C107.244 129.948 104.949 129.03 102.96 129.03C101.966 129.03 101.507 129.489 101.507 130.33L101.354 157.717C101.354 159.783 101.43 162.231 101.583 163.302C101.813 164.373 102.119 165.214 102.501 165.75C102.884 166.285 103.419 166.667 104.184 166.82C104.949 166.973 108.927 167.509 109.157 165.979C109.386 164.143 109.386 162.154 111.528 154.81C114.818 143.335 119.025 137.674 121.091 135.685C121.473 135.303 121.856 135.303 121.856 135.915C121.779 138.439 121.473 144.712 121.244 150.067C120.708 164.373 123.309 167.05 127.058 167.05C129.888 167.05 133.943 164.219 138.227 157.028C140.904 152.591 143.505 148.154 145.418 145.018C146.718 146.242 148.172 147.543 149.625 148.92C152.991 152.133 154.139 155.193 153.374 158.1C152.838 160.318 150.696 162.613 146.871 160.395C145.8 159.783 145.265 159.247 144.194 158.482C143.582 158.1 142.664 157.946 142.128 158.405C140.675 159.477 139.91 160.854 139.451 162.537C138.992 164.143 140.675 165.061 142.358 165.826C143.811 166.514 146.948 167.05 149.013 167.127C156.816 167.356 163.166 163.378 167.526 152.897C168.291 161.924 171.657 167.05 177.395 167.05C181.296 167.05 185.121 162.077 186.804 157.105C187.263 159.094 188.028 160.854 188.946 162.307C193.383 169.345 202.028 167.815 206.388 161.848C207.765 160.012 207.918 159.323 207.918 159.323C208.53 164.984 213.12 166.973 215.721 166.973C218.628 166.973 221.688 165.596 223.754 160.853C223.983 161.389 224.289 161.848 224.595 162.307C229.032 169.345 237.677 167.815 242.037 161.848C242.267 161.542 242.42 161.312 242.573 161.083L242.726 164.832C242.726 164.832 240.278 167.126 238.748 168.503C232.016 174.623 226.967 179.29 226.584 184.722C226.125 191.607 231.71 194.207 235.994 194.513C240.507 194.896 244.332 192.372 246.704 188.929C248.769 185.869 250.146 179.29 250.07 172.711C249.993 170.11 249.993 166.744 249.917 163.225C252.288 160.471 254.889 157.029 257.337 152.974C260.015 148.537 262.845 142.647 264.299 138.057C264.299 138.057 266.747 138.056 269.424 137.903C270.266 137.827 270.495 138.056 270.342 138.668C270.189 139.433 266.976 151.597 269.883 159.706C271.872 165.214 276.309 167.05 278.91 167.05C281.97 167.05 284.954 164.755 286.484 161.236C286.637 161.618 286.866 162.001 287.096 162.307C291.533 169.345 300.177 167.815 304.538 161.848C305.532 160.471 306.068 159.323 306.068 159.323C306.986 165.214 311.576 166.973 314.177 166.973C316.931 166.973 319.455 165.826 321.597 160.93C321.674 163.149 321.827 164.908 322.056 165.443C322.209 165.749 322.974 166.208 323.51 166.438C326.034 167.356 328.559 166.897 329.477 166.744C330.165 166.591 330.624 166.056 330.701 164.755C330.854 161.236 330.777 155.269 331.848 150.832C333.684 143.412 335.291 140.505 336.132 139.128C336.591 138.363 337.05 138.209 337.127 139.051C337.127 140.734 337.28 145.783 337.968 152.515C338.504 157.487 339.192 160.395 339.728 161.313C341.258 163.99 343.094 164.067 344.624 164.067C345.618 164.067 347.607 163.837 347.378 162.078C347.301 161.236 347.454 156.187 349.214 148.843C350.361 144.1 352.274 139.74 353.039 138.21C353.268 137.598 353.421 138.057 353.421 138.21C353.268 141.499 352.962 152.209 354.263 158.1C356.099 166.056 361.301 166.973 363.137 166.973C367.038 166.973 370.251 163.99 371.322 156.187C371.552 154.198 371.169 152.745 370.022 152.745Z" fill="#262626"/>
</svg>
