<svg width="440" height="281" viewBox="0 0 440 281" fill="none" xmlns="http://www.w3.org/2000/svg">
<path d="M432 280.525H8C3.6 280.525 0 276.925 0 272.525V8.52466C0 4.12466 3.6 0.524658 8 0.524658H432C436.4 0.524658 440 4.12466 440 8.52466V272.525C440 276.925 436.4 280.525 432 280.525Z" fill="#E6E6E6"/>
<path d="M189.636 166.992V159.553C190.547 160.312 191.458 160.919 192.673 161.526C193.887 162.134 195.102 162.589 196.468 163.045C197.834 163.5 199.049 163.804 200.415 163.956C201.782 164.107 202.996 164.259 204.059 164.259C207.854 164.259 210.739 163.5 212.713 162.134C214.686 160.767 215.597 158.642 215.597 155.909C215.597 154.391 215.294 153.176 214.686 152.114C214.079 151.051 213.168 149.988 212.105 149.229C211.043 148.318 209.676 147.559 208.158 146.648C206.64 145.889 204.97 144.978 203.3 144.067C201.478 143.156 199.656 142.094 198.138 141.183C196.468 140.272 195.102 139.209 193.887 137.995C192.673 136.78 191.762 135.566 191.003 134.047C190.244 132.529 189.94 130.859 189.94 128.886C189.94 126.456 190.547 124.331 191.61 122.509C192.673 120.687 194.039 119.169 195.861 118.106C197.531 116.892 199.504 116.133 201.782 115.526C204.059 114.918 206.336 114.615 208.614 114.615C213.927 114.615 217.723 115.222 220.152 116.588V123.724C216.964 121.598 213.016 120.384 208.006 120.384C206.64 120.384 205.274 120.536 203.907 120.839C202.541 121.143 201.326 121.598 200.264 122.206C199.201 122.813 198.29 123.724 197.683 124.786C197.075 125.849 196.62 127.064 196.62 128.582C196.62 129.948 196.924 131.163 197.379 132.074C197.834 133.136 198.594 134.047 199.656 134.806C200.719 135.566 201.934 136.476 203.3 137.236C204.666 137.995 206.336 138.906 208.158 139.816C210.132 140.727 211.954 141.79 213.624 142.853C215.294 143.916 216.812 145.13 218.178 146.345C219.544 147.559 220.455 149.077 221.214 150.596C221.974 152.114 222.277 153.936 222.277 155.909C222.277 158.49 221.822 160.767 220.759 162.589C219.696 164.411 218.33 165.929 216.66 166.992C214.838 168.206 212.864 168.966 210.587 169.421C208.31 169.876 205.881 170.18 203.3 170.18C202.389 170.18 201.478 170.18 200.112 170.028C198.897 169.876 197.531 169.725 196.316 169.421C195.102 169.117 193.735 168.814 192.673 168.51C191.154 167.903 190.244 167.447 189.636 166.992Z" fill="black"/>
<path d="M259.017 169.117H250.364L233.663 150.747H233.512V169.117H227.287V112.337H233.512V148.318H233.663L249.604 130.707H257.651L239.888 149.229L259.017 169.117Z" fill="black"/>
<path d="M294.998 130.707L277.539 175.19C274.351 183.085 269.948 187.032 264.331 187.032C262.813 187.032 261.446 186.88 260.383 186.576V181.111C261.75 181.566 262.964 181.718 264.027 181.718C267.063 181.718 269.341 179.896 271.011 176.253L274.047 168.966L259.169 130.707H266.001L276.324 160.16C276.476 160.464 276.78 161.526 277.083 163.045H277.235C277.387 162.437 277.539 161.526 277.994 160.16L288.773 130.556H294.998V130.707Z" fill="black"/>
<path d="M304.563 148.166V153.48C304.563 156.668 305.626 159.401 307.599 161.526C309.725 163.804 312.306 164.866 315.342 164.866C318.986 164.866 321.87 163.5 323.996 160.615C326.121 157.731 327.184 153.784 327.184 148.774C327.184 144.523 326.273 141.183 324.299 138.754C322.326 136.325 319.745 135.11 316.405 135.11C312.913 135.11 310.028 136.325 307.903 138.905C305.626 141.183 304.563 144.371 304.563 148.166ZM304.715 163.5L304.563 186.728H298.49V130.707H304.563V137.387H304.715C307.751 132.225 312.154 129.796 317.923 129.796C322.781 129.796 326.728 131.466 329.461 134.958C332.194 138.45 333.56 143.005 333.56 148.774C333.56 155.15 332.042 160.312 328.854 164.107C325.818 167.903 321.567 169.876 316.101 169.876C311.243 170.028 307.296 167.903 304.715 163.5Z" fill="black"/>
<path d="M364.227 146.345C364.227 142.853 363.316 139.968 361.646 137.995C359.976 136.021 357.699 135.11 354.663 135.11C351.778 135.11 349.349 136.173 347.375 138.146C345.402 140.272 344.187 142.853 343.58 146.345H364.227ZM370.452 151.506H343.58C343.732 155.757 344.795 159.097 347.072 161.375C349.197 163.652 352.234 164.866 356.029 164.866C360.28 164.866 364.227 163.5 367.871 160.616V166.385C364.531 168.814 360.128 170.028 354.511 170.028C349.197 170.028 344.946 168.358 341.758 164.866C338.722 161.375 337.204 156.516 337.204 150.14C337.204 144.219 338.874 139.361 342.214 135.566C345.554 131.77 349.805 129.948 354.815 129.948C359.825 129.948 363.62 131.618 366.353 134.806C369.085 137.995 370.452 142.549 370.452 148.318V151.506Z" fill="black"/>
<path d="M115.853 169.876C100.519 169.876 93.5357 162.134 93.5357 156.365C93.5357 153.48 95.813 151.355 98.8493 151.355C105.378 151.355 103.708 161.223 116.005 161.223C122.229 161.223 125.873 157.427 125.873 153.935C125.873 151.81 124.658 149.381 120.559 148.47L106.896 144.978C95.9648 142.245 93.9911 136.021 93.9911 130.404C93.9911 118.714 104.77 114.463 114.942 114.463C124.355 114.463 135.589 119.625 135.589 126.76C135.589 129.796 133.008 131.466 130.124 131.466C124.507 131.466 125.418 123.572 114.183 123.572C108.566 123.572 105.681 126.153 105.681 129.796C105.681 133.44 110.084 134.655 113.879 135.565L123.899 137.843C134.982 140.272 137.867 146.8 137.867 153.025C137.867 162.437 130.428 169.876 115.853 169.876ZM158.21 149.533C158.666 147.104 158.818 144.523 158.818 141.942C158.818 117.955 139.537 98.5218 115.701 98.5218C113.12 98.5218 110.691 98.6736 108.262 99.1291C104.467 97.0036 100.216 95.7891 95.5093 95.7891C81.3902 95.7891 69.8521 107.327 69.8521 121.598C69.8521 126.305 71.0666 130.555 73.1921 134.351C72.7366 136.78 72.5848 139.361 72.5848 141.942C72.5848 165.929 91.8657 185.362 115.701 185.362C118.282 185.362 120.711 185.21 123.14 184.755C126.936 186.88 131.187 188.095 135.893 188.095C150.012 188.095 161.55 176.556 161.55 162.285C161.55 157.731 160.336 153.328 158.21 149.533Z" fill="black"/>
</svg>
