<svg display="none" xmlns="http://www.w3.org/2000/svg">

        <symbol id="logo" viewBox="0 0 195 35">
            <g>
                <path d="M21.5934 16.4064C21.3329 16.4665 21.1489 16.6988 21.1489 16.9656M21.5934 16.4064L21.6496 16.65M21.5934 16.4064C21.5933 16.4064 21.5932 16.4064 21.593 16.4065L21.6496 16.65M21.5934 16.4064C24.2485 15.789 26.1017 13.4561 26.1017 10.731C26.1017 7.51494 23.4851 4.89828 20.2692 4.89828C17.5248 4.89828 15.1239 6.8465 14.5619 9.5284C14.5063 9.79432 14.2717 9.9848 14.0001 9.9848C13.7285 9.9848 13.4938 9.79432 13.4382 9.52841C12.8761 6.8465 10.4752 4.89828 7.7308 4.89828C4.51495 4.89828 1.89828 7.51494 1.89828 10.731C1.89828 13.4561 3.7515 15.789 6.40659 16.4064L21.1489 16.9656M21.1489 16.9656C21.1489 17.2322 21.3328 17.4644 21.593 17.5247L21.6496 17.2812M21.1489 16.9656L21.6496 17.2812M21.6496 16.65C21.5029 16.6839 21.3989 16.8149 21.3989 16.9656C21.3989 17.1163 21.5029 17.2473 21.6496 17.2812M21.6496 16.65V17.2812M21.6496 17.2812C24.4181 17.9247 26.3517 20.3586 26.3517 23.2002C26.3517 26.5543 23.6231 29.2829 20.2692 29.2829C17.4067 29.2829 14.9035 27.2519 14.3173 24.454M21.6496 17.2812L21.5934 17.5248C24.2485 18.1421 26.1017 20.475 26.1017 23.2002C26.1017 26.4162 23.4851 29.0329 20.2692 29.0329C17.5248 29.0329 15.124 27.0847 14.562 24.4029M14.3173 24.454L14.562 24.4029M14.3173 24.454L14.5619 24.4028C14.562 24.4028 14.562 24.4029 14.562 24.4029M14.3173 24.454C14.2859 24.304 14.1534 24.1964 14.0001 24.1964C13.8467 24.1964 13.7142 24.304 13.6829 24.454M14.562 24.4029L13.4382 24.4027L13.6829 24.454M13.6829 24.454C13.0965 27.2519 10.5933 29.2829 7.7308 29.2829C4.37687 29.2829 1.64828 26.5543 1.64828 23.2002C1.64828 20.3586 3.58188 17.9247 6.35036 17.2812M13.6829 24.454L13.4382 24.4029C12.876 27.0847 10.4751 29.0329 7.7308 29.0329C4.51495 29.0329 1.89828 26.4162 1.89828 23.2002C1.89828 20.475 3.75159 18.142 6.40678 17.5247C6.40684 17.5247 6.4069 17.5247 6.40696 17.5247L6.35036 17.2812M6.35036 17.2812C6.49707 17.2473 6.60106 17.1163 6.60106 16.9656C6.60106 16.8149 6.49707 16.6839 6.35036 16.65V17.2812ZM27.25 10.731C27.25 6.88143 24.1186 3.75 20.2692 3.75C17.5704 3.75 15.1516 5.32181 14.0001 7.66239C12.8484 5.32181 10.4294 3.75 7.7308 3.75C3.88142 3.75 0.75 6.88143 0.75 10.731C0.75 13.4277 2.26822 15.8058 4.5914 16.9656C2.26822 18.1253 0.75 20.5034 0.75 23.2002C0.75 27.0497 3.88142 30.1812 7.7308 30.1812C10.4294 30.1812 12.8484 28.6093 14.0001 26.2688C15.1516 28.6093 17.5704 30.1812 20.2692 30.1812C24.1186 30.1812 27.25 27.0497 27.25 23.2002C27.25 20.5034 25.7318 18.1253 23.4086 16.9656C25.7318 15.8058 27.25 13.4277 27.25 10.731Z"  fill="transparent" stroke="#3DB370" stroke-width="1"/>
                <path d="M45.515 31C45.095 31 44.745 30.86 44.465 30.58C44.2083 
                30.3 44.08 29.9617 44.08 29.565V7.9C44.08 7.50333 44.2083 7.17667 
                44.465 6.92C44.745 6.64 45.0833 6.5 45.48 6.5H57.765C58.1617 6.5 58.5 6.62833 58.78 
                6.885C59.06 7.14167 59.2 7.46833 59.2 7.865C59.2 8.23833 59.06 8.55333 58.78 8.81C58.5 9.06667 
                58.1617 9.195 57.765 9.195H46.74L46.95 8.915V17.49L46.775 17.105H56.19C56.5867 17.105 56.925 17.245 
                57.205 17.525C57.485 17.7817 57.625 18.1083 57.625 18.505C57.625 18.855 57.485 19.17 57.205 19.45C56.925 
                19.7067 56.5867 19.835 56.19 19.835H46.705L46.95 19.52V29.565C46.95 29.9617 46.81 30.3 46.53 30.58C46.25 30.86 45.9117 31 45.515 31ZM64.4724 31C64.0758 31 63.7374 30.86 63.4574 30.58C63.2008 30.3 63.0724 29.9617 63.0724 29.565V14.305C63.0724 13.9083 63.2008 13.5817 63.4574 13.325C63.7374 13.045 64.0758 12.905 64.4724 12.905C64.8924 12.905 65.2308 13.045 65.4874 13.325C65.7441 13.5817 65.8724 13.9083 65.8724 14.305V18.925L65.4524 18.19C65.5924 17.4667 65.8374 16.7667 66.1874 16.09C66.5608 15.39 67.0274 14.7717 67.5874 14.235C68.1474 13.675 68.7891 13.2433 69.5124 12.94C70.2358 12.6133 71.0291 12.45 71.8924 12.45C72.4058 12.45 72.8724 12.5783 73.2924 12.835C73.7358 13.0683 73.9574 13.4067 73.9574 13.85C73.9574 14.34 73.8291 14.7017 73.5724 14.935C73.3158 15.1683 73.0241 15.285 72.6974 15.285C72.3941 15.285 72.1024 15.2267 71.8224 15.11C71.5424 14.97 71.1924 14.9 70.7724 14.9C70.1891 14.9 69.6058 15.0633 69.0224 15.39C68.4624 15.6933 67.9374 16.1367 67.4474 16.72C66.9808 17.3033 66.5958 17.9683 66.2924 18.715C66.0124 19.4383 65.8724 20.22 65.8724 21.06V29.565C65.8724 29.9617 65.7324 30.3 65.4524 30.58C65.1958 30.86 64.8691 31 64.4724 31ZM84.6991 31.35C82.8325 31.35 81.1991 30.9533 79.7991 30.16C78.3991 29.3667 77.3025 28.2817 76.5091 26.905C75.7391 25.505 75.3541 23.895 75.3541 22.075C75.3541 20.045 75.7508 18.3183 76.5441 16.895C77.3608 15.4483 78.4108 14.3517 79.6941 13.605C81.0008 12.835 82.3775 12.45 83.8241 12.45C84.8975 12.45 85.9358 12.6483 86.9391 13.045C87.9425 13.4417 88.8291 14.025 89.5991 14.795C90.3691 15.5417 90.9875 16.4517 91.4541 17.525C91.9208 18.575 92.1658 19.7533 92.1891 21.06C92.1891 21.4333 92.0491 21.7483 91.7691 22.005C91.4891 22.2617 91.1625 22.39 90.7891 22.39H76.9641L76.3341 19.975H89.8091L89.2491 20.465V19.695C89.1558 18.7383 88.8291 17.9217 88.2691 17.245C87.7325 16.545 87.0675 16.0083 86.2741 15.635C85.5041 15.2617 84.6875 15.075 83.8241 15.075C83.1241 15.075 82.4241 15.2033 81.7241 15.46C81.0475 15.6933 80.4291 16.09 79.8691 16.65C79.3325 17.1867 78.8891 17.8867 78.5391 18.75C78.2125 19.6133 78.0491 20.6517 78.0491 21.865C78.0491 23.2183 78.3175 24.4083 78.8541 25.435C79.4141 26.4617 80.1841 27.2783 81.1641 27.885C82.1441 28.4683 83.2875 28.76 84.5941 28.76C85.4108 28.76 86.1225 28.655 86.7291 28.445C87.3358 28.235 87.8608 27.9783 88.3041 27.675C88.7475 27.3483 89.1208 27.0217 89.4241 26.695C89.7275 26.485 90.0191 26.38 90.2991 26.38C90.6491 26.38 90.9291 26.4967 91.1391 26.73C91.3725 26.9633 91.4891 27.2433 91.4891 27.57C91.4891 27.9667 91.3025 28.3167 90.9291 28.62C90.2758 29.3433 89.3891 29.985 88.2691 30.545C87.1491 31.0817 85.9591 31.35 84.6991 31.35ZM104.763 31.35C102.896 31.35 101.263 30.9533 99.8626 30.16C98.4626 29.3667 97.366 28.2817 96.5726 26.905C95.8026 25.505 95.4176 23.895 95.4176 22.075C95.4176 20.045 95.8143 18.3183 96.6076 16.895C97.4243 15.4483 98.4743 14.3517 99.7576 13.605C101.064 12.835 102.441 12.45 103.888 12.45C104.961 12.45 105.999 12.6483 107.003 13.045C108.006 13.4417 108.893 14.025 109.663 14.795C110.433 15.5417 111.051 16.4517 111.518 17.525C111.984 18.575 112.229 19.7533 112.253 21.06C112.253 21.4333 112.113 21.7483 111.833 22.005C111.553 22.2617 111.226 22.39 110.853 22.39H97.0276L96.3976 19.975H109.873L109.313 20.465V19.695C109.219 18.7383 108.893 17.9217 108.333 17.245C107.796 16.545 107.131 16.0083 106.338 15.635C105.568 15.2617 104.751 15.075 103.888 15.075C103.188 15.075 102.488 15.2033 101.788 15.46C101.111 15.6933 100.493 16.09 99.9326 16.65C99.396 17.1867 98.9526 17.8867 98.6026 18.75C98.276 19.6133 98.1126 20.6517 98.1126 21.865C98.1126 23.2183 98.381 24.4083 98.9176 25.435C99.4776 26.4617 100.248 27.2783 101.228 27.885C102.208 28.4683 103.351 28.76 104.658 28.76C105.474 28.76 106.186 28.655 106.793 28.445C107.399 28.235 107.924 27.9783 108.368 27.675C108.811 27.3483 109.184 27.0217 109.488 26.695C109.791 26.485 110.083 26.38 110.363 26.38C110.713 26.38 110.993 26.4967 111.203 26.73C111.436 26.9633 111.553 27.2433 111.553 27.57C111.553 27.9667 111.366 28.3167 110.993 28.62C110.339 29.3433 109.453 29.985 108.333 30.545C107.213 31.0817 106.023 31.35 104.763 31.35ZM125.211 12.625C126.751 12.625 127.964 12.9633 128.851 13.64C129.761 14.2933 130.403 15.18 130.776 16.3C131.173 17.3967 131.371 18.6217 131.371 19.975V29.565C131.371 29.9617 131.231 30.3 130.951 30.58C130.694 30.86 130.368 31 129.971 31C129.574 31 129.236 30.86 128.956 30.58C128.699 30.3 128.571 29.9617 128.571 29.565V19.975C128.571 19.0883 128.443 18.295 128.186 17.595C127.929 16.8717 127.498 16.3 126.891 15.88C126.308 15.4367 125.503 15.215 124.476 15.215C123.519 15.215 122.644 15.4367 121.851 15.88C121.058 16.3 120.428 16.8717 119.961 17.595C119.494 18.295 119.261 19.0883 119.261 19.975V29.565C119.261 29.9617 119.121 30.3 118.841 30.58C118.584 30.86 118.258 31 117.861 31C117.464 31 117.126 30.86 116.846 30.58C116.589 30.3 116.461 29.9617 116.461 29.565V6.5C116.461 6.10333 116.589 5.77667 116.846 5.52C117.126 5.24 117.464 5.1 117.861 5.1C118.281 5.1 118.619 5.24 118.876 5.52C119.133 5.77667 119.261 6.10333 119.261 6.5V16.965L118.561 17.735C118.678 17.1283 118.934 16.5217 119.331 15.915C119.728 15.285 120.229 14.725 120.836 14.235C121.443 13.745 122.119 13.36 122.866 13.08C123.613 12.7767 124.394 12.625 125.211 12.625ZM151.469 12.73C151.865 12.73 152.192 12.87 152.449 13.15C152.729 13.4067 152.869 13.7333 152.869 14.13V29.565C152.869 29.9617 152.729 30.3 152.449 30.58C152.192 30.86 151.865 31 151.469 31C151.049 31 150.71 30.86 150.454 30.58C150.197 30.3 150.069 29.9617 150.069 29.565V26.24L150.734 26.17C150.734 26.6833 150.559 27.2433 150.209 27.85C149.859 28.4567 149.38 29.0283 148.774 29.565C148.167 30.0783 147.444 30.51 146.604 30.86C145.787 31.1867 144.9 31.35 143.944 31.35C142.357 31.35 140.934 30.9417 139.674 30.125C138.414 29.285 137.41 28.1533 136.664 26.73C135.94 25.3067 135.579 23.685 135.579 21.865C135.579 20.0217 135.94 18.4 136.664 17C137.41 15.5767 138.414 14.4683 139.674 13.675C140.934 12.8583 142.334 12.45 143.874 12.45C144.877 12.45 145.81 12.6133 146.674 12.94C147.537 13.2667 148.284 13.71 148.914 14.27C149.567 14.83 150.069 15.4483 150.419 16.125C150.792 16.8017 150.979 17.4783 150.979 18.155L150.069 17.945V14.13C150.069 13.7333 150.197 13.4067 150.454 13.15C150.71 12.87 151.049 12.73 151.469 12.73ZM144.259 28.76C145.425 28.76 146.452 28.4567 147.339 27.85C148.249 27.2433 148.949 26.4267 149.439 25.4C149.952 24.35 150.209 23.1717 150.209 21.865C150.209 20.5817 149.952 19.4267 149.439 18.4C148.949 17.35 148.249 16.5333 147.339 15.95C146.452 15.3433 145.425 15.04 144.259 15.04C143.115 15.04 142.089 15.3317 141.179 15.915C140.292 16.4983 139.592 17.3033 139.079 18.33C138.565 19.3567 138.309 20.535 138.309 21.865C138.309 23.1717 138.554 24.35 139.044 25.4C139.557 26.4267 140.257 27.2433 141.144 27.85C142.054 28.4567 143.092 28.76 144.259 28.76ZM167.053 12.45C168.639 12.45 169.888 12.7767 170.798 13.43C171.708 14.0833 172.349 14.9583 172.723 16.055C173.119 17.1517 173.318 18.3767 173.318 19.73V29.565C173.318 29.9617 173.178 30.3 172.898 30.58C172.641 30.86 172.314 31 171.918 31C171.521 31 171.183 30.86 170.903 30.58C170.646 30.3 170.518 29.9617 170.518 29.565V19.8C170.518 18.9133 170.378 18.12 170.098 17.42C169.841 16.6967 169.398 16.125 168.768 15.705C168.161 15.2617 167.321 15.04 166.248 15.04C165.268 15.04 164.369 15.2617 163.553 15.705C162.736 16.125 162.083 16.6967 161.593 17.42C161.103 18.12 160.858 18.9133 160.858 19.8V29.565C160.858 29.9617 160.718 30.3 160.438 30.58C160.181 30.86 159.854 31 159.458 31C159.061 31 158.723 30.86 158.443 30.58C158.186 30.3 158.058 29.9617 158.058 29.565V14.305C158.058 13.9083 158.186 13.5817 158.443 13.325C158.723 13.045 159.061 12.905 159.458 12.905C159.878 12.905 160.216 13.045 160.473 13.325C160.729 13.5817 160.858 13.9083 160.858 14.305V16.79L160.158 17.56C160.274 16.9533 160.543 16.3467 160.963 15.74C161.383 15.11 161.908 14.55 162.538 14.06C163.168 13.57 163.868 13.185 164.638 12.905C165.408 12.6017 166.213 12.45 167.053 12.45ZM193.407 5.1C193.804 5.1 194.131 5.24 194.387 5.52C194.667 5.77667 194.807 6.10333 194.807 6.5V29.565C194.807 29.9617 194.667 30.3 194.387 30.58C194.131 30.86 193.804 31 193.407 31C192.987 31 192.649 30.86 192.392 30.58C192.136 30.3 192.007 29.9617 192.007 29.565V26.24L192.672 25.995C192.672 26.555 192.497 27.15 192.147 27.78C191.797 28.3867 191.319 28.9583 190.712 29.495C190.106 30.0317 189.382 30.475 188.542 30.825C187.726 31.175 186.839 31.35 185.882 31.35C184.319 31.35 182.896 30.9417 181.612 30.125C180.352 29.3083 179.349 28.1883 178.602 26.765C177.879 25.3417 177.517 23.72 177.517 21.9C177.517 20.0567 177.879 18.4233 178.602 17C179.349 15.5767 180.352 14.4683 181.612 13.675C182.872 12.8583 184.272 12.45 185.812 12.45C186.792 12.45 187.714 12.6133 188.577 12.94C189.441 13.2667 190.187 13.71 190.817 14.27C191.471 14.83 191.984 15.4483 192.357 16.125C192.731 16.8017 192.917 17.4783 192.917 18.155L192.007 17.945V6.5C192.007 6.10333 192.136 5.77667 192.392 5.52C192.649 5.24 192.987 5.1 193.407 5.1ZM186.197 28.76C187.364 28.76 188.391 28.4683 189.277 27.885C190.187 27.2783 190.887 26.4617 191.377 25.435C191.891 24.385 192.147 23.2067 192.147 21.9C192.147 20.57 191.891 19.3917 191.377 18.365C190.887 17.3383 190.187 16.5333 189.277 15.95C188.391 15.3433 187.364 15.04 186.197 15.04C185.054 15.04 184.027 15.3433 183.117 15.95C182.231 16.5333 181.531 17.3383 181.017 18.365C180.504 19.3917 180.247 20.57 180.247 21.9C180.247 23.1833 180.504 24.35 181.017 25.4C181.531 26.4267 182.231 27.2433 183.117 27.85C184.027 28.4567 185.054 28.76 186.197 28.76Z"/>
            </g>
        </symbol>

        <symbol id="instagram" viewBox="0 0 38 38">
            <g>
                <rect width="38" height="38" rx="5" fill="#EFEEF3"/>
                <path d="M19.0078 13.8739C16.1685 13.8739 13.8783 16.1641 13.8783 19.0033C13.8783 21.8426 16.1685 24.1328 19.0078 24.1328C21.8471 24.1328 24.1373 21.8426 24.1373 19.0033C24.1373 16.1641 21.8471 13.8739 19.0078 13.8739ZM19.0078 22.3382C17.173 22.3382 15.673 20.8426 15.673 19.0033C15.673 17.1641 17.1685 15.6685 19.0078 15.6685C20.8471 15.6685 22.3426 17.1641 22.3426 19.0033C22.3426 20.8426 20.8426 22.3382 19.0078 22.3382ZM25.5435 13.6641C25.5435 14.3292 25.0078 14.8605 24.3471 14.8605C23.6819 14.8605 23.1506 14.3248 23.1506 13.6641C23.1506 13.0033 23.6864 12.4676 24.3471 12.4676C25.0078 12.4676 25.5435 13.0033 25.5435 13.6641ZM28.9408 14.8783C28.8649 13.2757 28.4989 11.856 27.3247 10.6864C26.1551 9.51674 24.7355 9.15067 23.1328 9.07031C21.481 8.97656 16.5301 8.97656 14.8783 9.07031C13.2801 9.14621 11.8605 9.51228 10.6864 10.6819C9.51228 11.8516 9.15067 13.2712 9.07031 14.8739C8.97656 16.5257 8.97656 21.4766 9.07031 23.1283C9.14621 24.731 9.51228 26.1507 10.6864 27.3203C11.8605 28.49 13.2757 28.856 14.8783 28.9364C16.5301 29.0301 21.481 29.0301 23.1328 28.9364C24.7355 28.8605 26.1551 28.4944 27.3247 27.3203C28.4944 26.1507 28.8605 24.731 28.9408 23.1283C29.0346 21.4766 29.0346 16.5301 28.9408 14.8783ZM26.8069 24.9007C26.4587 25.7757 25.7846 26.4498 24.9051 26.8025C23.5881 27.3248 20.4632 27.2042 19.0078 27.2042C17.5524 27.2042 14.423 27.3203 13.1105 26.8025C12.2355 26.4542 11.5614 25.7801 11.2087 24.9007C10.6864 23.5837 10.8069 20.4587 10.8069 19.0033C10.8069 17.548 10.6908 14.4185 11.2087 13.106C11.5569 12.231 12.231 11.5569 13.1105 11.2042C14.4274 10.6819 17.5524 10.8025 19.0078 10.8025C20.4632 10.8025 23.5926 10.6864 24.9051 11.2042C25.7801 11.5525 26.4542 12.2266 26.8069 13.106C27.3292 14.423 27.2087 17.548 27.2087 19.0033C27.2087 20.4587 27.3292 23.5882 26.8069 24.9007Z"/>
            </g>
        </symbol>

        <symbol id="facebook" viewBox="0 0 38 38">
            <g>
                <rect width="38" height="38" rx="5" fill="#EFEEF3"/>
                <path d="M23.3447 20.5025L23.8632 17.1235H20.621V14.9307C20.621 14.0063 21.0739 13.1052 22.526 13.1052H24V10.2283C24 10.2283 22.6624 10 21.3835 10C18.7134 10 16.9681 11.6184 16.9681 14.5482V17.1235H14V20.5025H16.9681V28.6711H20.621V20.5025H23.3447Z"/>
            </g>
        </symbol>

        <symbol id="github" viewBox="0 0 38 38">
            <g>
                <rect width="38" height="38" rx="5" fill="#EFEEF3"/>
                <path d="M15.6895 24.7016C15.6895 24.7823 15.5968 24.8468 15.4798 24.8468C15.3468 24.8589 15.254 24.7944 15.254 24.7016C15.254 24.621 15.3468 24.5565 15.4637 24.5565C15.5847 24.5444 15.6895 24.6089 15.6895 24.7016ZM14.4355 24.5202C14.4073 24.6008 14.4879 24.6935 14.6089 24.7177C14.7137 24.7581 14.8347 24.7177 14.8589 24.6371C14.8831 24.5565 14.8065 24.4637 14.6855 24.4274C14.5806 24.3992 14.4637 24.4395 14.4355 24.5202ZM16.2177 24.4516C16.1008 24.4798 16.0202 24.5565 16.0323 24.6492C16.0444 24.7298 16.1492 24.7823 16.2702 24.754C16.3871 24.7258 16.4677 24.6492 16.4556 24.5685C16.4435 24.4919 16.3347 24.4395 16.2177 24.4516ZM18.871 9C13.2782 9 9 13.246 9 18.8387C9 23.3105 11.8145 27.1371 15.8347 28.4839C16.3508 28.5766 16.5323 28.2581 16.5323 27.996C16.5323 27.746 16.5202 26.3669 16.5202 25.5202C16.5202 25.5202 13.6976 26.125 13.1048 24.3185C13.1048 24.3185 12.6452 23.1452 11.9839 22.8427C11.9839 22.8427 11.0605 22.2097 12.0484 22.2218C12.0484 22.2218 13.0524 22.3024 13.6048 23.2621C14.4879 24.8185 15.9677 24.371 16.5444 24.1048C16.6371 23.4597 16.8992 23.0121 17.1895 22.746C14.9355 22.496 12.6613 22.1694 12.6613 18.2903C12.6613 17.1815 12.9677 16.625 13.6129 15.9153C13.5081 15.6532 13.1653 14.5726 13.7177 13.1774C14.5605 12.9153 16.5 14.2661 16.5 14.2661C17.3065 14.0403 18.1734 13.9234 19.0323 13.9234C19.8911 13.9234 20.7581 14.0403 21.5645 14.2661C21.5645 14.2661 23.504 12.9113 24.3468 13.1774C24.8992 14.5766 24.5565 15.6532 24.4516 15.9153C25.0968 16.629 25.4919 17.1855 25.4919 18.2903C25.4919 22.1815 23.1169 22.4919 20.8629 22.746C21.2339 23.0645 21.5484 23.6694 21.5484 24.6169C21.5484 25.9758 21.5363 27.6573 21.5363 27.9879C21.5363 28.25 21.7218 28.5685 22.2339 28.4758C26.2661 27.1371 29 23.3105 29 18.8387C29 13.246 24.4637 9 18.871 9ZM12.9194 22.9073C12.8669 22.9476 12.879 23.0403 12.9476 23.1169C13.0121 23.1815 13.1048 23.2097 13.1573 23.1573C13.2097 23.1169 13.1976 23.0242 13.129 22.9476C13.0645 22.8831 12.9718 22.8548 12.9194 22.9073ZM12.4839 22.5806C12.4556 22.6331 12.496 22.6976 12.5766 22.7379C12.6411 22.7782 12.7218 22.7661 12.75 22.7097C12.7782 22.6573 12.7379 22.5927 12.6573 22.5524C12.5766 22.5282 12.5121 22.5403 12.4839 22.5806ZM13.7903 24.0161C13.7258 24.0685 13.75 24.1895 13.8427 24.2661C13.9355 24.3589 14.0524 24.371 14.1048 24.3065C14.1573 24.254 14.1331 24.1331 14.0524 24.0565C13.9637 23.9637 13.8427 23.9516 13.7903 24.0161ZM13.3306 23.4234C13.2661 23.4637 13.2661 23.5685 13.3306 23.6613C13.3952 23.754 13.504 23.7944 13.5565 23.754C13.621 23.7016 13.621 23.5968 13.5565 23.504C13.5 23.4113 13.3952 23.371 13.3306 23.4234Z"/>
            </g>
        </symbol>

        <symbol id="ball" viewBox="0 0 38 38">
            <g>
                <rect width="38" height="38" rx="5" fill="#EFEEF3"/>
                <path d="M18.6875 9C13.3458 9 9 13.3458 9 18.6875C9 24.0292 13.3458 28.375 18.6875 28.375C24.0292 28.375 28.375 24.0292 28.375 18.6875C28.375 13.3458 24.0292 9 18.6875 9ZM25.0926 13.4674C26.245 14.8755 26.9429 16.6689 26.9611 18.6219C26.6883 18.5642 23.9526 18.0093 21.1993 18.3556C20.9746 17.8071 20.7626 17.3246 20.4721 16.73C23.5315 15.4809 24.9181 13.7034 25.0926 13.4674ZM24.1727 12.5105C24.0239 12.7225 22.7783 14.3967 19.8359 15.4996C18.48 13.0083 16.9771 10.9618 16.7484 10.6555C19.3725 10.023 22.1377 10.7051 24.1727 12.5105ZM15.1696 11.2117C15.3877 11.5109 16.8664 13.56 18.2374 15.9972C14.3668 17.0251 10.9577 17.0103 10.5877 17.0054C11.1242 14.4377 12.8546 12.3036 15.1696 11.2117ZM10.4129 18.7001C10.4129 18.6155 10.4146 18.5313 10.4171 18.4473C10.7791 18.4547 14.789 18.5064 18.9213 17.2697C19.1581 17.7333 19.3844 18.2039 19.5921 18.6739C16.6 19.5167 13.8814 21.9367 12.5401 24.2328C11.2185 22.7658 10.4129 20.8254 10.4129 18.7001ZM13.6085 25.228C14.4728 23.4611 16.8186 21.1802 20.1545 20.0422C21.3162 23.0611 21.7967 25.5911 21.9197 26.3171C19.2591 27.4504 16.0598 27.1395 13.6085 25.228ZM23.3108 25.5596C23.226 25.0562 22.7856 22.6339 21.7033 19.6598C24.2963 19.2448 26.5744 19.9242 26.8575 20.0136C26.4887 22.3159 25.1671 24.3043 23.3108 25.5596Z"/>
            </g>
        </symbol>

        <symbol id="twitter" viewBox="0 0 38 38">
            <g>
                <rect width="38" height="38" rx="5" fill="#EFEEF3"/>
                <path d="M26.9441 15.0482C26.9568 15.2259 26.9568 15.4036 26.9568 15.5812C26.9568 21 22.8325 27.2436 15.2944 27.2436C12.9721 27.2436 10.8147 26.571 9 25.4036C9.32996 25.4416 9.64719 25.4543 9.98984 25.4543C11.9061 25.4543 13.67 24.8071 15.0787 23.703C13.2766 23.665 11.7665 22.4848 11.2462 20.8604C11.5 20.8984 11.7538 20.9238 12.0203 20.9238C12.3883 20.9238 12.7564 20.873 13.099 20.7843C11.2208 20.4035 9.81215 18.7538 9.81215 16.7614V16.7107C10.3578 17.0152 10.9924 17.2056 11.6649 17.2309C10.5609 16.4949 9.83754 15.2386 9.83754 13.8172C9.83754 13.0558 10.0405 12.3579 10.3959 11.7487C12.4137 14.236 15.4467 15.8604 18.8477 16.038C18.7842 15.7335 18.7461 15.4163 18.7461 15.099C18.7461 12.8401 20.5736 11 22.8451 11C24.0253 11 25.0913 11.4949 25.84 12.2944C26.7664 12.1168 27.6547 11.7741 28.4416 11.3046C28.137 12.2564 27.4898 13.0559 26.6395 13.5634C27.4644 13.4746 28.2639 13.2462 28.9999 12.9289C28.4416 13.7411 27.7436 14.4644 26.9441 15.0482Z"/>
            </g>
        </symbol>
        
    </svg>