<?xml version="1.0" standalone="no"?>
<!DOCTYPE svg PUBLIC "-//W3C//DTD SVG 20010904//EN"
 "http://www.w3.org/TR/2001/REC-SVG-20010904/DTD/svg10.dtd">
<svg version="1.0" xmlns="http://www.w3.org/2000/svg"
 width="192.000000pt" height="192.000000pt" viewBox="0 0 192.000000 192.000000"
 preserveAspectRatio="xMidYMid meet">
<metadata>
Created by potrace 1.14, written by Peter Selinger 2001-2017
</metadata>
<g transform="translate(0.000000,192.000000) scale(0.100000,-0.100000)"
fill="#000000" stroke="none">
<path d="M0 960 l0 -960 960 0 960 0 0 960 0 960 -960 0 -960 0 0 -960z m504
590 c55 -91 179 -296 276 -457 l176 -291 271 456 271 457 141 3 141 3 2 -676
c1 -371 2 -703 3 -737 l0 -63 -162 -3 -163 -2 -2 437 -3 437 -213 -357 -213
-358 -80 3 -81 3 -212 348 -211 347 -3 -430 -2 -430 -160 0 -160 0 0 740 0
741 143 -3 142 -3 99 -165z"/>
</g>
</svg>
