<svg width="170" height="20" viewBox="0 0 170 20" fill="none" xmlns="http://www.w3.org/2000/svg">
<path d="M5.464 1.336C7.304 1.336 8.768 1.712 9.856 2.464C10.944 3.2 11.488 4.304 11.488 5.776C11.488 6.864 11.216 7.776 10.672 8.512C10.144 9.232 9.416 9.776 8.488 10.144C7.576 10.496 6.528 10.672 5.344 10.672L4.792 8.8C6.248 8.8 7.536 9 8.656 9.4C9.792 9.8 10.688 10.376 11.344 11.128C12 11.864 12.328 12.752 12.328 13.792C12.328 14.752 12.152 15.568 11.8 16.24C11.464 16.896 11 17.432 10.408 17.848C9.832 18.248 9.176 18.544 8.44 18.736C7.704 18.912 6.944 19 6.16 19H0.28V1.336H5.464ZM5.872 8.56C6.56 8.56 7.064 8.352 7.384 7.936C7.72 7.52 7.888 7.048 7.888 6.52C7.888 5.912 7.68 5.456 7.264 5.152C6.864 4.848 6.32 4.696 5.632 4.696H3.76V8.56H5.872ZM5.992 15.76C6.504 15.76 6.968 15.696 7.384 15.568C7.8 15.424 8.128 15.208 8.368 14.92C8.608 14.616 8.728 14.24 8.728 13.792C8.728 13.28 8.584 12.896 8.296 12.64C8.008 12.368 7.632 12.184 7.168 12.088C6.72 11.976 6.248 11.92 5.752 11.92H3.76V15.76H5.992ZM34.0351 1.336V19H30.5551V11.824H22.6591V19H19.1791V1.336H22.6591V8.464H30.5551V1.336H34.0351ZM47.2973 1.336C48.4013 1.336 49.3853 1.48 50.2493 1.768C51.1133 2.04 51.8333 2.44 52.4093 2.968C53.0013 3.48 53.4493 4.104 53.7533 4.84C54.0573 5.56 54.2093 6.376 54.2093 7.288C54.2093 8.008 54.0973 8.728 53.8733 9.448C53.6653 10.168 53.3133 10.824 52.8173 11.416C52.3373 12.008 51.6973 12.488 50.8973 12.856C50.0973 13.208 49.1053 13.384 47.9213 13.384H45.4253V19H41.9453V1.336H47.2973ZM47.8973 10.024C48.4253 10.024 48.8653 9.936 49.2173 9.76C49.5693 9.584 49.8413 9.36 50.0333 9.088C50.2413 8.816 50.3853 8.536 50.4653 8.248C50.5613 7.944 50.6093 7.664 50.6093 7.408C50.6093 7.216 50.5773 6.976 50.5133 6.688C50.4653 6.384 50.3533 6.08 50.1773 5.776C50.0013 5.472 49.7293 5.216 49.3613 5.008C49.0093 4.8 48.5293 4.696 47.9213 4.696H45.4253V10.024H47.8973ZM51.1613 12.184L55.5293 19H51.4733L47.0093 12.28L51.1613 12.184ZM60.0691 10.192C60.0691 8.976 60.3011 7.824 60.7651 6.736C61.2291 5.648 61.8691 4.688 62.6851 3.856C63.5171 3.008 64.4771 2.344 65.5651 1.864C66.6531 1.384 67.8211 1.144 69.0691 1.144C70.3011 1.144 71.4611 1.384 72.5491 1.864C73.6371 2.344 74.5971 3.008 75.4291 3.856C76.2771 4.688 76.9331 5.648 77.3971 6.736C77.8771 7.824 78.1171 8.976 78.1171 10.192C78.1171 11.44 77.8771 12.608 77.3971 13.696C76.9331 14.784 76.2771 15.744 75.4291 16.576C74.5971 17.392 73.6371 18.032 72.5491 18.496C71.4611 18.96 70.3011 19.192 69.0691 19.192C67.8211 19.192 66.6531 18.96 65.5651 18.496C64.4771 18.032 63.5171 17.392 62.6851 16.576C61.8691 15.744 61.2291 14.784 60.7651 13.696C60.3011 12.608 60.0691 11.44 60.0691 10.192ZM63.6691 10.192C63.6691 10.976 63.8051 11.712 64.0771 12.4C64.3651 13.072 64.7571 13.672 65.2531 14.2C65.7651 14.712 66.3491 15.112 67.0051 15.4C67.6771 15.688 68.4051 15.832 69.1891 15.832C69.9411 15.832 70.6371 15.688 71.2771 15.4C71.9331 15.112 72.5011 14.712 72.9811 14.2C73.4611 13.672 73.8371 13.072 74.1091 12.4C74.3811 11.712 74.5171 10.976 74.5171 10.192C74.5171 9.392 74.3731 8.648 74.0851 7.96C73.8131 7.272 73.4291 6.672 72.9331 6.16C72.4531 5.632 71.8851 5.224 71.2291 4.936C70.5731 4.648 69.8611 4.504 69.0931 4.504C68.3251 4.504 67.6131 4.648 66.9571 4.936C66.3011 5.224 65.7251 5.632 65.2291 6.16C64.7331 6.672 64.3491 7.272 64.0771 7.96C63.8051 8.648 63.6691 9.392 63.6691 10.192ZM84.9466 19V0.615999H84.9706L94.7866 14.536L93.2986 14.2L103.091 0.615999H103.139V19H99.6586V8.464L99.8746 10.264L93.8986 18.76H93.8506L87.7066 10.264L88.3066 8.608V19H84.9466ZM109.072 19L117.04 0.639999H117.232L125.2 19H121.168L116.08 6.088L118.6 4.36L112.504 19H109.072ZM114.52 12.616H119.824L121.048 15.544H113.44L114.52 12.616ZM128.837 10.192C128.837 8.976 129.069 7.824 129.533 6.736C129.997 5.648 130.637 4.688 131.453 3.856C132.285 3.008 133.245 2.344 134.333 1.864C135.421 1.384 136.589 1.144 137.837 1.144C139.069 1.144 140.229 1.384 141.317 1.864C142.405 2.344 143.365 3.008 144.197 3.856C145.045 4.688 145.701 5.648 146.165 6.736C146.645 7.824 146.885 8.976 146.885 10.192C146.885 11.44 146.645 12.608 146.165 13.696C145.701 14.784 145.045 15.744 144.197 16.576C143.365 17.392 142.405 18.032 141.317 18.496C140.229 18.96 139.069 19.192 137.837 19.192C136.589 19.192 135.421 18.96 134.333 18.496C133.245 18.032 132.285 17.392 131.453 16.576C130.637 15.744 129.997 14.784 129.533 13.696C129.069 12.608 128.837 11.44 128.837 10.192ZM132.437 10.192C132.437 10.976 132.573 11.712 132.845 12.4C133.133 13.072 133.525 13.672 134.021 14.2C134.533 14.712 135.117 15.112 135.773 15.4C136.445 15.688 137.173 15.832 137.957 15.832C138.709 15.832 139.405 15.688 140.045 15.4C140.701 15.112 141.269 14.712 141.749 14.2C142.229 13.672 142.605 13.072 142.877 12.4C143.149 11.712 143.285 10.976 143.285 10.192C143.285 9.392 143.141 8.648 142.853 7.96C142.581 7.272 142.197 6.672 141.701 6.16C141.221 5.632 140.653 5.224 139.997 4.936C139.341 4.648 138.629 4.504 137.861 4.504C137.093 4.504 136.381 4.648 135.725 4.936C135.069 5.224 134.493 5.632 133.997 6.16C133.501 6.672 133.117 7.272 132.845 7.96C132.573 8.648 132.437 9.392 132.437 10.192ZM169.53 19.72L156.138 7.624L157.17 8.2L157.242 19H153.714V0.639999H153.858L166.962 12.688L166.194 12.352L166.122 1.336H169.626V19.72H169.53Z" fill="white"/>
</svg>
